<?xml version="1.0" encoding="UTF-8"?>
<svg width="128" height="28" xmlns="http://www.w3.org/2000/svg" xmlns:xlink="http://www.w3.org/1999/xlink">
<defs>
	<linearGradient id="gradient_0" gradientUnits="userSpaceOnUse" x1="-107.38" y1="1.61" x2="126.55" y2="26.98">
		<stop offset="0%" stop-color="#8c9bdd"/>
		<stop offset="100%" stop-color="#62789b"/>
	</linearGradient>
</defs>
<path d="M 123.20 16.28 C 123.29 16.18 123.49 16.18 123.79 15.98 C 126.60 15.18 127.80 13.68 127.30 11.68 C 126.99 10.37 126.10 9.48 124.69 8.98 C 124.30 8.98 123.99 8.87 123.70 8.87 C 122.60 8.78 121.70 9.17 120.79 10.37 L 120.19 11.18 C 120.19 11.18 120.00 10.68 119.50 9.98 C 119.00 9.27 118.00 8.98 116.59 8.87 C 115.49 8.87 114.59 9.17 113.89 9.98 C 113.19 10.68 112.79 11.48 112.79 12.68 L 112.79 24.09 C 112.79 25.19 113.19 26.19 113.89 26.88 C 114.59 27.49 115.49 27.89 116.59 27.89 C 117.69 27.89 118.59 27.38 119.29 26.69 C 120.00 25.99 120.39 24.99 120.39 23.88 L 120.39 20.59 C 120.29 19.28 120.50 18.28 120.79 17.78 C 121.29 17.28 121.99 16.78 123.20 16.28" stroke="none" fill="url(#gradient_0)"  />

<defs>
	<linearGradient id="gradient_1" gradientUnits="userSpaceOnUse" x1="-123.83" y1="1.62" x2="126.20" y2="26.98">
		<stop offset="0%" stop-color="#8c9bdd"/>
		<stop offset="100%" stop-color="#62789b"/>
	</linearGradient>
</defs>
<path d="M 99.27 16.38 C 99.27 16.28 99.37 16.28 99.48 16.18 C 99.78 15.18 100.28 14.68 101.08 14.47 C 102.27 14.28 103.08 14.88 103.48 16.08 L 103.48 16.38 Z M 109.99 13.38 C 109.29 12.07 108.08 10.98 106.68 10.18 C 105.19 9.27 103.48 8.87 101.47 8.87 C 98.48 8.87 96.07 9.68 94.28 11.48 C 92.28 13.27 91.28 15.38 91.28 17.98 C 91.17 21.18 92.37 23.68 94.78 25.58 C 97.17 27.38 100.48 28.19 104.78 27.79 C 105.88 27.58 106.98 27.38 107.78 27.19 C 109.88 26.38 110.99 25.49 111.18 24.29 C 111.38 23.38 111.18 22.59 110.59 21.88 C 110.09 21.28 109.29 20.89 108.29 20.89 C 107.98 20.89 107.28 21.09 106.48 21.28 C 105.39 21.59 104.48 21.68 103.88 21.78 C 101.97 21.88 100.78 21.48 99.88 20.89 C 99.68 20.59 99.48 20.39 99.27 20.18 L 108.29 20.18 C 110.49 20.18 111.59 19.18 111.49 17.17 C 111.29 15.88 110.88 14.68 109.99 13.38" stroke="none" fill="url(#gradient_1)"  />

<defs>
	<linearGradient id="gradient_2" gradientUnits="userSpaceOnUse" x1="-123.37" y1="0.57" x2="125.45" y2="27.04">
		<stop offset="0%" stop-color="#8c9bdd"/>
		<stop offset="100%" stop-color="#62789b"/>
	</linearGradient>
</defs>
<path d="M 79.56 9.27 C 79.16 9.48 78.77 9.68 78.25 9.87 L 78.25 4.47 C 78.25 3.27 77.77 2.47 77.06 1.67 C 76.36 0.97 75.46 0.66 74.36 0.57 C 73.26 0.66 72.35 0.97 71.65 1.67 C 70.96 2.47 70.56 3.27 70.56 4.37 L 70.56 24.09 C 70.56 25.19 70.96 26.08 71.65 26.88 C 72.35 27.49 73.26 27.89 74.36 27.89 C 75.46 27.89 76.26 27.49 77.06 26.88 C 77.77 26.19 78.25 25.19 78.25 24.09 L 78.25 16.88 C 78.25 15.78 78.97 15.18 80.26 14.97 C 81.36 15.18 81.97 15.88 82.06 16.88 L 82.06 24.09 C 82.06 25.19 82.47 26.19 83.17 26.88 C 83.87 27.58 84.76 27.99 85.87 27.99 C 86.97 27.99 87.97 27.58 88.66 26.99 C 89.47 26.19 89.77 25.29 89.77 24.18 L 89.77 15.28 C 89.77 12.88 88.77 10.98 86.97 9.87 C 84.96 8.68 82.56 8.48 79.56 9.27" stroke="none" fill="url(#gradient_2)"  />

<defs>
	<linearGradient id="gradient_3" gradientUnits="userSpaceOnUse" x1="-119.01" y1="1.33" x2="122.68" y2="27.05">
		<stop offset="0%" stop-color="#8c9bdd"/>
		<stop offset="100%" stop-color="#62789b"/>
	</linearGradient>
</defs>
<path d="M 68.45 10.98 C 67.95 10.18 66.85 9.68 65.16 9.17 C 64.05 8.87 62.95 8.68 61.55 8.68 C 58.34 8.87 56.04 9.68 54.55 11.27 C 53.14 12.88 52.75 14.78 53.55 16.78 C 53.84 17.48 54.44 18.28 55.14 18.78 C 55.95 19.28 57.15 19.89 58.65 20.28 L 61.24 20.89 C 61.24 20.98 61.45 21.09 61.45 21.09 C 61.85 21.28 61.95 21.59 61.85 21.88 C 61.75 22.09 61.55 22.09 61.24 22.09 L 60.55 22.09 C 60.15 22.09 59.55 21.88 58.54 21.59 L 57.34 21.18 C 54.95 20.59 53.25 21.09 52.64 22.79 C 52.14 24.09 52.84 25.38 54.75 26.58 C 55.75 27.29 57.45 27.69 59.65 27.89 C 62.95 28.19 65.45 27.58 67.05 26.19 C 68.65 24.88 69.45 23.38 69.36 21.68 C 69.25 19.98 68.56 18.68 67.05 17.38 C 66.36 16.98 65.55 16.58 64.66 16.28 L 61.05 15.18 C 60.95 15.08 60.95 14.97 60.74 14.97 C 60.45 14.78 60.45 14.47 60.55 14.28 L 60.65 14.18 L 60.74 14.18 C 60.95 13.97 61.24 13.97 61.95 14.18 L 62.25 14.18 L 62.85 14.28 L 63.35 14.38 L 64.45 14.68 C 65.55 14.97 66.45 14.97 66.95 14.88 C 67.86 14.58 68.45 13.97 68.65 13.27 C 69.06 12.48 68.95 11.68 68.45 10.98" stroke="none" fill="url(#gradient_3)"  />

<defs>
	<linearGradient id="gradient_4" gradientUnits="userSpaceOnUse" x1="-127.77" y1="2.19" x2="124.95" y2="27.11">
		<stop offset="0%" stop-color="#8c9bdd"/>
		<stop offset="100%" stop-color="#62789b"/>
	</linearGradient>
</defs>
<path d="M 40.13 15.78 C 40.83 15.38 41.53 15.38 42.44 15.68 C 43.23 15.98 43.84 16.88 44.04 17.98 L 44.04 18.98 C 43.94 19.39 43.84 19.78 43.64 20.08 C 43.14 20.89 42.53 21.29 41.63 21.38 C 40.83 21.59 40.13 21.29 39.53 20.59 C 39.03 19.98 38.83 19.28 38.83 18.48 C 38.93 18.28 38.93 18.08 38.93 17.88 C 39.03 16.88 39.53 16.18 40.13 15.78 M 50.34 26.88 C 51.14 26.19 51.44 25.29 51.55 24.09 L 51.55 12.48 C 51.55 11.18 51.04 10.07 50.04 9.07 C 49.34 8.57 48.44 8.28 47.34 8.48 C 46.43 8.68 45.64 8.98 45.14 9.57 C 44.73 10.07 44.54 10.37 44.54 10.48 L 44.54 10.27 C 43.14 8.98 41.14 8.48 38.53 8.87 C 36.54 9.27 34.82 10.27 33.53 11.98 C 32.12 13.68 31.33 15.68 31.12 17.98 C 31.03 20.18 31.53 22.09 32.62 23.79 C 34.13 25.99 36.13 27.29 38.23 27.79 C 39.83 27.99 41.24 28.09 42.53 27.89 C 43.73 27.79 44.44 27.19 44.54 26.29 L 44.54 26.19 C 44.54 26.19 44.93 26.49 45.54 26.99 C 46.24 27.49 46.94 27.89 47.64 27.89 C 48.74 27.89 49.65 27.49 50.34 26.88" stroke="none" fill="url(#gradient_4)"  />

<defs>
	<linearGradient id="gradient_5" gradientUnits="userSpaceOnUse" x1="-133.26" y1="2.66" x2="127.51" y2="27.12">
		<stop offset="0%" stop-color="#8c9bdd"/>
		<stop offset="100%" stop-color="#62789b"/>
	</linearGradient>
</defs>
<path d="M 29.72 15.28 C 29.63 12.88 28.72 11.18 26.82 9.87 C 24.93 8.68 22.62 8.48 20.01 9.17 C 19.42 9.27 18.72 9.68 17.92 10.07 L 16.92 10.68 L 16.22 10.18 C 14.02 8.68 11.61 8.48 9.01 9.17 C 7.91 9.27 7.11 9.68 6.71 10.18 C 6.71 10.18 6.51 9.98 6.11 9.57 C 5.51 9.17 4.91 8.87 3.91 8.87 C 2.70 8.87 1.71 9.17 1.11 9.87 C 0.41 10.68 0.00 11.48 0.00 12.68 L 0.00 24.09 C 0.10 25.08 0.41 26.08 1.11 26.88 C 2.00 27.59 2.91 27.99 3.91 27.99 C 4.91 27.99 5.71 27.59 6.51 26.88 C 7.21 26.08 7.61 25.19 7.61 24.09 L 7.61 16.88 C 7.71 15.88 8.41 15.38 9.41 15.28 C 10.41 15.38 11.01 15.98 11.11 16.98 L 11.11 24.09 C 11.11 25.08 11.51 26.08 12.11 26.88 C 12.91 27.59 13.82 27.99 14.81 27.99 C 15.81 27.99 16.72 27.59 17.52 26.88 C 18.22 26.19 18.62 25.19 18.62 24.09 L 18.62 16.98 C 18.72 15.98 19.31 15.48 20.42 15.38 C 21.42 15.48 21.92 15.98 22.02 17.08 L 22.02 24.09 C 22.12 25.19 22.52 26.19 23.12 26.88 C 23.93 27.49 24.82 27.89 26.02 27.89 C 27.02 27.89 27.92 27.49 28.63 26.88 C 29.33 26.08 29.72 25.19 29.72 24.09 Z M 29.72 15.28" stroke="none" fill="url(#gradient_5)"  />


</svg>
