<?xml version="1.0" encoding="UTF-8"?>
<svg width="102" height="28" xmlns="http://www.w3.org/2000/svg" xmlns:xlink="http://www.w3.org/1999/xlink">
<path d="M 89.66 16.40 C 89.66 16.29 89.77 16.20 89.77 16.20 C 90.07 15.20 90.67 14.70 91.36 14.50 C 92.67 14.30 93.37 14.89 93.77 16.09 L 93.77 16.40 Z M 100.38 13.39 C 99.47 12.10 98.37 10.99 96.97 10.20 C 95.47 9.29 93.77 8.90 91.77 8.90 C 88.86 8.90 86.37 9.79 84.56 11.49 C 82.67 13.19 81.67 15.40 81.46 18.10 C 81.46 21.20 82.67 23.70 85.16 25.60 C 87.46 27.39 90.77 28.10 95.17 27.80 C 96.27 27.60 97.27 27.39 98.07 27.19 C 100.18 26.40 101.38 25.49 101.47 24.40 C 101.77 23.50 101.47 22.70 100.97 22.00 C 100.38 21.30 99.68 21.00 98.68 21.00 C 98.27 21.00 97.67 21.10 96.77 21.20 C 95.77 21.59 94.76 21.69 94.28 21.80 C 92.37 21.80 90.97 21.50 90.27 20.80 C 89.97 20.69 89.77 20.50 89.66 20.19 L 98.68 20.19 C 100.88 20.19 101.88 19.19 101.77 17.20 C 101.68 15.89 101.27 14.70 100.38 13.39" stroke="none" fill="black"  />

<path d="M 79.06 1.20 C 78.25 0.40 77.36 0.00 76.25 0.00 C 75.16 0.00 74.26 0.40 73.35 1.10 C 72.65 1.90 72.26 2.90 72.15 3.99 C 72.15 5.10 72.55 6.10 73.35 6.89 C 74.15 7.70 75.16 8.09 76.25 8.09 C 77.25 8.09 78.25 7.70 79.06 6.89 C 79.76 6.10 80.26 5.10 80.26 4.10 C 80.26 2.90 79.76 2.10 79.06 1.20" stroke="none" fill="black"  />

<path d="M 73.46 9.90 C 72.76 10.60 72.35 11.49 72.35 12.69 L 72.35 24.09 C 72.35 25.20 72.76 26.10 73.46 26.90 C 74.15 27.49 75.05 27.89 76.25 27.89 C 77.36 27.89 78.25 27.49 78.86 26.79 C 79.76 26.10 80.06 25.20 80.06 24.09 L 80.06 12.69 C 80.06 11.60 79.76 10.70 78.86 10.00 C 78.25 9.20 77.36 8.90 76.25 8.90 C 75.16 8.90 74.26 9.20 73.46 9.90" stroke="none" fill="black"  />

<path d="M 70.35 14.50 C 70.76 14.10 70.76 13.60 70.85 13.00 C 70.95 11.90 70.65 10.90 69.85 10.10 C 69.25 9.29 68.25 8.90 67.15 8.90 C 65.25 8.90 63.94 9.79 63.35 11.40 L 61.35 17.40 L 59.34 11.40 C 58.74 9.79 57.54 8.90 55.64 8.90 C 54.44 8.90 53.44 9.29 52.74 10.10 C 52.03 10.90 51.74 11.90 51.83 13.00 C 51.83 13.60 52.03 14.10 52.34 14.50 L 57.74 25.09 C 58.34 26.60 59.24 27.39 60.15 27.60 C 62.24 28.19 63.85 27.39 64.94 25.09 Z M 70.35 14.50" stroke="none" fill="black"  />

<path d="M 41.44 15.30 C 42.33 15.30 43.14 15.80 43.73 16.70 C 44.14 17.29 44.34 18.20 44.03 19.10 C 43.83 20.50 43.23 21.30 42.03 21.50 C 41.13 21.69 40.33 21.50 39.73 21.00 C 39.13 20.30 38.72 19.60 38.72 18.40 C 38.72 17.79 38.93 17.20 39.22 16.70 C 39.73 15.80 40.53 15.30 41.44 15.30 M 48.34 11.10 C 46.43 9.60 44.14 8.80 41.44 8.80 C 38.53 8.80 36.02 9.79 34.13 11.60 C 32.23 13.39 31.32 15.70 31.23 18.40 C 31.32 21.19 32.32 23.50 34.23 25.20 C 36.02 26.99 38.53 27.89 41.44 28.00 C 43.43 28.00 45.23 27.49 46.73 26.60 C 49.74 24.90 51.33 22.39 51.64 19.30 C 52.04 16.20 50.83 13.50 48.34 11.10" stroke="none" fill="black"  />

<path d="M 16.91 10.60 L 16.22 10.20 C 14.00 8.80 11.71 8.40 9.01 9.20 C 8.01 9.29 7.20 9.60 6.81 10.20 L 6.70 10.20 C 6.70 10.20 6.51 10.00 6.01 9.60 C 5.61 9.09 4.80 8.90 3.90 8.90 C 2.70 8.90 1.80 9.20 1.10 9.90 C 0.40 10.60 0.00 11.50 0.00 12.69 L 0.00 24.09 C 0.10 25.10 0.50 26.10 1.20 26.90 C 2.00 27.60 2.80 27.89 3.80 27.89 C 4.80 27.89 5.70 27.60 6.51 26.90 C 7.31 26.10 7.71 25.20 7.71 24.09 L 7.71 16.90 C 7.71 15.90 8.31 15.40 9.51 15.30 C 10.41 15.40 11.01 16.09 11.01 17.00 L 11.01 24.09 C 11.11 25.10 11.51 26.10 12.21 26.90 C 13.01 27.60 13.81 27.89 14.81 28.00 C 15.81 28.00 16.72 27.69 17.51 26.90 C 18.31 26.10 18.71 25.20 18.71 24.09 L 18.71 17.10 C 18.71 16.09 19.31 15.50 20.42 15.40 C 21.42 15.59 22.02 16.09 22.02 17.10 L 22.02 24.09 C 22.12 25.20 22.51 26.10 23.21 26.90 C 24.02 27.50 24.82 27.89 26.02 27.89 C 27.02 27.89 28.02 27.50 28.72 26.90 C 29.32 26.10 29.72 25.20 29.83 24.09 L 29.83 15.20 C 29.72 12.90 28.72 11.10 26.82 9.90 C 24.91 8.60 22.71 8.40 20.01 9.20 C 19.51 9.40 18.71 9.70 17.81 10.10 Z M 16.91 10.60" stroke="none" fill="black"  />


</svg>
