<?xml version="1.0" encoding="UTF-8"?>
<svg width="26" height="19" xmlns="http://www.w3.org/2000/svg" xmlns:xlink="http://www.w3.org/1999/xlink">
<defs>
	<linearGradient id="gradient_0" gradientUnits="userSpaceOnUse" x1="0.91" y1="-7.31" x2="249.50" y2="18.28">
		<stop offset="0%" stop-color="#8c9bdd"/>
		<stop offset="100%" stop-color="#62789b"/>
	</linearGradient>
</defs>
<path d="M 3.84 19.19 C 1.72 19.19 0.00 17.47 0.00 15.35 L 0.00 3.84 C 0.00 1.72 1.72 -0.00 3.84 -0.00 L 21.75 -0.00 C 23.87 -0.00 25.59 1.72 25.59 3.84 L 25.59 15.35 C 25.59 17.47 23.87 19.19 21.75 19.19 Z M 3.84 19.19" stroke="none" fill="url(#gradient_0)"  />

<path d="M 5.85 4.46 C 5.56 4.46 5.30 4.56 5.09 4.77 L 5.09 4.77 L 1.62 8.20 C 1.40 8.43 1.28 8.69 1.27 9.00 L 1.27 9.00 C 1.27 9.28 1.37 9.53 1.59 9.74 L 1.59 9.74 C 1.82 9.95 2.08 10.04 2.37 10.02 L 2.37 10.02 C 2.67 10.04 2.92 9.94 3.13 9.71 L 3.13 9.71 L 5.85 7.11 L 8.24 9.48 C 8.59 9.80 8.77 9.98 8.80 10.00 L 8.80 10.00 C 9.01 10.21 9.26 10.31 9.55 10.31 L 9.55 10.31 C 9.84 10.33 10.11 10.23 10.34 10.02 L 10.34 10.02 C 10.36 10.01 10.54 9.83 10.87 9.48 L 10.87 9.48 C 11.22 9.14 11.63 8.75 12.09 8.31 L 12.09 8.31 C 12.56 7.83 12.96 7.44 13.29 7.11 L 13.29 7.11 L 17.61 11.42 C 17.82 11.63 18.07 11.75 18.34 11.77 L 18.34 11.77 L 21.29 11.77 L 21.26 13.71 L 24.32 10.71 L 21.29 7.65 L 21.29 9.62 L 18.83 9.59 L 14.05 4.80 C 13.83 4.61 13.58 4.51 13.29 4.51 L 13.29 4.51 C 13.00 4.50 12.74 4.59 12.50 4.80 L 12.50 4.80 L 9.58 7.71 L 7.16 5.34 C 6.81 4.98 6.63 4.79 6.61 4.77 L 6.61 4.77 C 6.39 4.56 6.16 4.46 5.91 4.46 L 5.91 4.46 C 5.89 4.46 5.87 4.46 5.85 4.46" stroke="none" fill="white"  />

<path d="M 5.35 9.11 L 2.64 11.77 L 1.27 10.43 L 1.27 14.68 L 5.59 14.68 L 4.18 13.31 C 4.20 13.31 4.22 13.30 4.24 13.28 L 4.24 13.28 L 6.14 11.42 L 9.09 14.34 C 9.30 14.55 9.55 14.65 9.84 14.65 L 9.84 14.65 C 10.14 14.67 10.40 14.58 10.63 14.37 L 10.63 14.37 L 13.55 11.42 L 16.53 14.42 C 16.74 14.61 17.00 14.71 17.29 14.71 L 17.29 14.71 L 19.48 14.73 C 19.79 14.72 20.05 14.61 20.27 14.42 L 20.27 14.42 C 20.48 14.21 20.59 13.95 20.59 13.62 L 20.59 13.62 C 20.59 13.32 20.48 13.06 20.27 12.85 L 20.27 12.85 C 20.07 12.66 19.82 12.57 19.51 12.57 L 19.51 12.57 L 17.76 12.54 L 14.34 9.14 C 14.13 8.95 13.87 8.85 13.58 8.85 L 13.58 8.85 C 13.29 8.84 13.03 8.93 12.80 9.14 L 12.80 9.14 L 9.84 12.02 L 6.87 9.11 C 6.65 8.90 6.41 8.80 6.14 8.80 L 6.14 8.80 C 5.85 8.80 5.59 8.90 5.35 9.11" stroke="none" fill="white"  />


</svg>
