<?xml version="1.0" encoding="UTF-8"?>
<svg width="640" height="48" xmlns="http://www.w3.org/2000/svg" xmlns:xlink="http://www.w3.org/1999/xlink">

<path d="M 22.37 17.24 C 22.37 18.21 22.47 19.01 22.66 19.59 C 22.87 20.17 23.13 20.80 23.50 21.49 C 23.63 21.70 23.69 21.91 23.69 22.10 C 23.69 22.36 23.53 22.62 23.19 22.89 L 21.52 24.00 C 21.29 24.15 21.05 24.23 20.84 24.23 C 20.57 24.23 20.31 24.10 20.04 23.86 C 19.68 23.47 19.36 23.05 19.09 22.62 C 18.83 22.17 18.57 21.67 18.28 21.07 C 16.22 23.49 13.63 24.71 10.51 24.71 C 8.30 24.71 6.53 24.08 5.24 22.81 C 3.94 21.54 3.28 19.85 3.28 17.74 C 3.28 15.50 4.07 13.67 5.68 12.30 C 7.29 10.93 9.43 10.24 12.15 10.24 C 13.05 10.24 13.97 10.32 14.95 10.45 C 15.93 10.59 16.93 10.80 17.99 11.03 L 17.99 9.11 C 17.99 7.10 17.56 5.70 16.74 4.88 C 15.90 4.07 14.47 3.67 12.44 3.67 C 11.52 3.67 10.57 3.77 9.59 4.01 C 8.61 4.25 7.66 4.54 6.74 4.91 C 6.32 5.09 6.00 5.20 5.82 5.25 C 5.63 5.31 5.50 5.33 5.39 5.33 C 5.02 5.33 4.84 5.07 4.84 4.51 L 4.84 3.22 C 4.84 2.80 4.89 2.48 5.02 2.30 C 5.16 2.11 5.39 1.93 5.76 1.74 C 6.69 1.27 7.80 0.87 9.09 0.55 C 10.38 0.21 11.76 0.05 13.21 0.05 C 16.35 0.05 18.65 0.77 20.12 2.19 C 21.58 3.62 22.31 5.78 22.31 8.69 L 22.31 17.24 Z M 11.65 21.25 C 12.52 21.25 13.42 21.09 14.37 20.78 C 15.32 20.46 16.16 19.88 16.88 19.09 C 17.30 18.58 17.62 18.03 17.77 17.40 C 17.93 16.76 18.04 16.00 18.04 15.10 L 18.04 13.99 C 17.27 13.81 16.45 13.65 15.61 13.54 C 14.77 13.44 13.95 13.38 13.13 13.38 C 11.36 13.38 10.07 13.73 9.20 14.44 C 8.32 15.15 7.90 16.16 7.90 17.48 C 7.90 18.72 8.22 19.64 8.88 20.27 C 9.51 20.93 10.44 21.25 11.65 21.25 Z M 32.85 24.10 C 32.37 24.10 32.06 24.02 31.84 23.84 C 31.63 23.68 31.45 23.31 31.29 22.81 L 25.09 2.40 C 24.93 1.87 24.85 1.53 24.85 1.35 C 24.85 0.92 25.06 0.69 25.48 0.69 L 28.07 0.69 C 28.57 0.69 28.91 0.77 29.10 0.95 C 29.31 1.11 29.47 1.48 29.63 1.98 L 34.06 19.46 L 38.18 1.98 C 38.31 1.45 38.47 1.11 38.68 0.95 C 38.89 0.79 39.26 0.69 39.74 0.69 L 41.85 0.69 C 42.35 0.69 42.69 0.77 42.91 0.95 C 43.12 1.11 43.30 1.48 43.41 1.98 L 47.58 19.67 L 52.14 1.98 C 52.30 1.45 52.49 1.11 52.67 0.95 C 52.88 0.79 53.23 0.69 53.70 0.69 L 56.16 0.69 C 56.58 0.69 56.82 0.90 56.82 1.35 C 56.82 1.48 56.79 1.61 56.76 1.77 C 56.74 1.93 56.69 2.14 56.58 2.43 L 50.22 22.83 C 50.06 23.36 49.87 23.71 49.66 23.86 C 49.45 24.02 49.11 24.13 48.66 24.13 L 46.39 24.13 C 45.89 24.13 45.55 24.05 45.33 23.86 C 45.12 23.68 44.94 23.34 44.83 22.81 L 40.74 5.78 L 36.68 22.78 C 36.54 23.31 36.39 23.65 36.17 23.84 C 35.96 24.02 35.59 24.10 35.12 24.10 L 32.85 24.10 Z M 66.77 24.81 C 65.40 24.81 64.02 24.66 62.70 24.34 C 61.38 24.02 60.35 23.68 59.67 23.28 C 59.25 23.05 58.96 22.78 58.85 22.54 C 58.74 22.31 58.69 22.04 58.69 21.80 L 58.69 20.46 C 58.69 19.90 58.90 19.64 59.30 19.64 C 59.46 19.64 59.62 19.67 59.77 19.72 C 59.93 19.77 60.17 19.88 60.43 19.98 C 61.33 20.38 62.31 20.70 63.34 20.91 C 64.39 21.12 65.42 21.22 66.48 21.22 C 68.14 21.22 69.44 20.93 70.33 20.35 C 71.23 19.77 71.71 18.93 71.71 17.85 C 71.71 17.11 71.47 16.50 70.99 16.00 C 70.52 15.50 69.62 15.05 68.33 14.62 L 64.50 13.44 C 62.57 12.83 61.15 11.93 60.28 10.74 C 59.40 9.58 58.96 8.29 58.96 6.92 C 58.96 5.81 59.19 4.83 59.67 3.99 C 60.14 3.14 60.78 2.40 61.57 1.82 C 62.36 1.21 63.26 0.77 64.31 0.45 C 65.37 0.13 66.48 0.00 67.64 0.00 C 68.22 0.00 68.83 0.03 69.41 0.11 C 70.02 0.18 70.57 0.29 71.13 0.40 C 71.65 0.53 72.15 0.66 72.63 0.82 C 73.11 0.98 73.47 1.14 73.74 1.29 C 74.11 1.50 74.37 1.72 74.53 1.95 C 74.69 2.16 74.77 2.46 74.77 2.82 L 74.77 4.07 C 74.77 4.62 74.56 4.91 74.16 4.91 C 73.95 4.91 73.61 4.80 73.16 4.59 C 71.65 3.91 69.96 3.56 68.09 3.56 C 66.58 3.56 65.40 3.80 64.58 4.30 C 63.76 4.80 63.34 5.57 63.34 6.65 C 63.34 7.39 63.60 8.03 64.13 8.53 C 64.66 9.03 65.63 9.53 67.03 9.98 L 70.78 11.17 C 72.68 11.77 74.06 12.62 74.87 13.70 C 75.69 14.78 76.09 16.02 76.09 17.40 C 76.09 18.53 75.85 19.56 75.40 20.46 C 74.93 21.36 74.29 22.15 73.47 22.78 C 72.66 23.44 71.68 23.92 70.54 24.26 C 69.36 24.63 68.12 24.81 66.77 24.81 Z M 66.77 24.81" stroke="none" fill="currentColor"  />

<path d="M 71.76 37.64 C 63.07 44.06 50.46 47.46 39.61 47.46 C 24.40 47.46 10.70 41.84 0.35 32.50 C -0.47 31.76 0.27 30.75 1.25 31.33 C 12.44 37.83 26.25 41.76 40.53 41.76 C 50.16 41.76 60.75 39.76 70.49 35.64 C 71.94 34.98 73.18 36.59 71.76 37.64 Z M 71.76 37.64" stroke="none" fill="currentColor"  />

<path d="M 75.38 33.53 C 74.27 32.10 68.04 32.84 65.21 33.18 C 64.37 33.29 64.24 32.55 65.00 31.99 C 69.96 28.51 78.12 29.51 79.07 30.67 C 80.02 31.86 78.81 40.02 74.16 43.93 C 73.45 44.53 72.76 44.22 73.08 43.43 C 74.13 40.81 76.48 34.92 75.38 33.53 Z M 75.38 33.53" stroke="none" fill="currentColor"  />


</svg>
