<?xml version="1.0" encoding="UTF-8"?>
<svg width="640" height="48" xmlns="http://www.w3.org/2000/svg" xmlns:xlink="http://www.w3.org/1999/xlink">
<path d="M 13.12 38.68 C 11.26 38.68 9.57 37.12 9.57 35.22 C 9.57 33.32 11.09 31.77 13.12 31.77 C 15.15 31.77 16.67 33.32 16.67 35.22 C 16.67 37.12 14.98 38.68 13.12 38.68 Z M 56.74 19.86 C 56.40 17.09 54.71 14.85 52.51 13.12 L 51.67 12.43 L 50.99 13.29 C 49.64 14.85 49.13 17.61 49.30 19.68 C 49.47 21.24 49.98 22.79 50.82 24.00 C 50.15 24.35 49.30 24.69 48.62 25.04 C 47.10 25.55 45.58 25.73 44.06 25.73 L 0.27 25.73 L 0.10 26.76 C -0.24 30.04 0.27 33.50 1.62 36.60 L 2.30 37.81 L 2.30 37.99 C 6.36 44.89 13.63 48.00 21.57 48.00 C 36.79 48.00 49.30 41.27 55.22 26.76 C 59.11 26.94 63.00 25.90 64.86 22.10 L 65.36 21.24 L 64.52 20.72 C 62.32 19.34 59.28 19.17 56.74 19.86 Z M 34.93 17.09 L 28.34 17.09 L 28.34 23.83 L 34.93 23.83 L 34.93 17.09 Z M 34.93 8.63 L 28.34 8.63 L 28.34 15.37 L 34.93 15.37 L 34.93 8.63 Z M 34.93 -0.00 L 28.34 -0.00 L 28.34 6.73 L 34.93 6.73 L 34.93 -0.00 Z M 43.05 17.09 L 36.45 17.09 L 36.45 23.83 L 43.05 23.83 L 43.05 17.09 Z M 18.53 17.09 L 11.94 17.09 L 11.94 23.83 L 18.53 23.83 L 18.53 17.09 Z M 26.81 17.09 L 20.22 17.09 L 20.22 23.83 L 26.81 23.83 L 26.81 17.09 Z M 10.41 17.09 L 3.82 17.09 L 3.82 23.83 L 10.41 23.83 L 10.41 17.09 Z M 26.81 8.63 L 20.22 8.63 L 20.22 15.37 L 26.81 15.37 L 26.81 8.63 Z M 18.53 8.63 L 11.94 8.63 L 11.94 15.37 L 18.53 15.37 L 18.53 8.63 Z M 18.53 8.63" stroke="none" fill="currentColor"  />
<path d="M 170.69 34.53 C 173.57 31.94 176.44 29.53 179.32 26.94 C 180.33 26.07 181.34 25.21 182.36 24.17 C 181.51 23.14 180.33 22.45 179.15 21.93 C 176.95 21.06 174.75 21.41 172.55 22.62 C 169.85 24.17 168.66 26.76 168.83 29.87 C 168.83 31.08 169.17 32.29 169.85 33.32 C 170.36 33.84 170.52 34.19 170.69 34.53 M 174.07 36.95 C 175.43 37.47 177.12 37.47 178.64 37.12 C 179.32 36.78 181.34 35.91 182.02 36.09 L 182.36 36.09 C 182.87 36.26 183.20 36.60 183.37 37.12 C 183.88 38.16 183.71 39.19 182.70 39.71 L 182.36 39.88 C 178.64 42.13 174.75 41.78 171.03 39.71 C 169.34 38.68 167.99 37.29 166.97 35.57 L 166.80 35.22 C 164.44 31.08 164.78 26.59 167.48 22.62 C 168.33 21.24 169.68 20.20 171.03 19.34 L 171.54 18.99 C 175.09 16.92 178.81 17.09 182.36 18.82 C 184.22 19.86 185.91 21.24 186.92 23.14 L 187.09 23.48 C 187.94 24.86 186.92 26.07 185.74 26.94 L 182.19 30.04 C 179.15 32.46 176.61 34.71 174.07 36.95 Z M 201.63 17.96 L 201.97 17.96 C 203.15 17.96 204.00 18.82 204.00 20.03 C 204.00 21.76 202.48 22.10 201.13 22.10 C 199.44 22.10 197.74 23.14 196.56 24.35 C 195.04 25.90 194.36 27.80 194.36 29.87 L 194.36 39.54 C 194.36 40.58 193.69 41.61 192.50 41.61 L 192.17 41.61 C 190.98 41.61 190.31 40.75 190.31 39.54 L 190.31 29.35 C 190.31 25.38 192.17 22.27 195.21 20.03 C 197.41 18.65 199.44 17.96 201.63 17.96 Z M 153.28 24.69 L 157.84 20.03 C 158.35 19.68 159.87 17.78 160.55 17.78 L 161.23 17.78 C 162.07 17.96 162.75 18.47 162.75 19.51 L 162.75 19.86 C 162.75 20.55 161.90 21.24 161.56 21.76 C 160.72 22.79 159.70 23.65 158.86 24.69 L 154.12 29.53 L 160.21 35.74 L 161.90 37.47 L 162.58 38.16 C 162.75 38.50 162.92 38.68 162.92 39.02 L 162.92 39.54 C 162.75 40.40 162.07 41.09 161.23 41.09 L 160.89 41.09 C 160.21 41.09 159.53 40.40 159.03 39.88 C 158.18 39.02 157.17 38.16 156.32 37.12 L 153.28 34.19 L 153.28 39.02 C 153.28 40.06 152.60 41.09 151.42 41.09 L 151.08 41.09 C 149.90 41.09 149.22 40.23 149.22 39.02 L 149.22 12.43 C 149.22 11.40 149.90 10.53 151.08 10.53 L 151.42 10.53 C 152.60 10.53 153.28 11.40 153.28 12.43 L 153.28 24.69 Z M 140.77 22.10 C 140.26 21.76 139.08 21.76 138.40 21.76 C 135.19 21.58 132.82 23.48 131.47 26.42 C 130.96 27.45 130.79 28.49 130.79 29.70 C 130.79 33.15 132.48 35.57 135.53 36.95 C 136.54 37.47 138.06 37.64 139.25 37.64 C 140.26 37.64 141.78 36.95 142.63 36.60 L 143.47 36.60 C 144.32 36.78 144.99 37.29 144.99 38.33 L 144.99 38.68 C 144.99 41.09 140.60 41.61 139.08 41.78 C 133.33 42.13 128.93 38.85 127.24 33.32 C 126.90 32.29 126.90 31.42 126.90 30.39 L 126.90 29.53 C 126.90 25.21 128.93 21.76 132.65 19.68 C 134.34 18.65 136.20 18.13 138.23 18.13 L 139.08 18.13 C 141.11 18.13 143.13 18.65 144.83 19.86 L 144.99 20.03 L 145.16 20.20 C 145.33 20.55 145.50 20.89 145.50 21.24 L 145.50 21.58 C 145.50 22.62 144.83 23.14 143.81 23.31 L 143.64 23.31 C 142.46 22.96 141.11 22.27 140.77 22.10 Z M 105.26 29.53 C 105.26 32.46 106.78 34.71 109.15 36.26 C 110.34 36.95 111.69 37.29 113.04 37.29 C 115.91 37.29 118.11 35.74 119.63 33.32 C 120.31 32.12 120.65 30.73 120.65 29.35 C 120.65 26.59 119.30 24.35 117.10 22.79 C 115.91 21.93 114.39 21.58 113.04 21.58 C 109.83 21.58 107.46 23.31 106.11 26.24 C 105.26 27.45 105.26 28.49 105.26 29.53 Z M 112.36 17.78 L 112.87 17.78 C 117.44 17.78 120.82 20.03 123.02 24.00 C 123.86 25.55 124.37 27.28 124.37 29.18 L 124.37 30.04 C 124.37 34.36 122.34 37.81 118.62 39.88 C 116.93 40.92 115.07 41.44 113.04 41.44 L 112.19 41.44 C 107.97 41.44 104.59 39.37 102.56 35.57 C 101.54 33.84 101.04 31.94 101.04 29.87 L 101.04 29.01 C 101.04 24.69 103.07 21.24 106.78 19.17 C 108.64 18.30 110.34 17.78 112.36 17.78 Z M 79.56 29.53 C 79.56 32.63 81.09 35.05 83.79 36.43 C 84.81 36.95 85.99 37.29 87.34 37.29 C 90.38 37.29 92.58 35.91 94.10 33.32 C 94.78 32.12 95.12 30.73 95.12 29.35 C 95.12 26.59 93.94 24.52 91.74 22.96 C 90.38 22.10 89.03 21.58 87.34 21.58 C 84.13 21.58 81.76 23.31 80.41 26.24 C 79.90 27.45 79.56 28.49 79.56 29.53 Z M 95.12 20.72 L 95.12 12.26 C 95.12 11.22 95.80 10.19 96.98 10.19 L 97.32 10.19 C 98.50 10.19 99.18 11.05 99.18 12.26 L 99.18 30.04 C 99.18 34.36 97.15 37.81 93.43 39.88 C 91.74 40.92 89.88 41.44 87.85 41.44 L 87.00 41.44 C 82.78 41.44 79.40 39.37 77.37 35.57 C 76.35 33.84 75.84 31.94 75.84 29.87 L 75.84 29.01 C 75.84 24.69 77.87 21.24 81.59 19.17 C 83.28 18.13 85.14 17.61 87.17 17.61 L 88.02 17.61 C 90.55 17.78 93.09 18.82 95.12 20.72 Z M 95.12 20.72" stroke="none" fill="currentColor"  />
</svg>