<?xml version="1.0" encoding="UTF-8"?>
<svg width="640" height="360" xmlns="http://www.w3.org/2000/svg" xmlns:xlink="http://www.w3.org/1999/xlink">
<path d="M 0.00 0.00 L 219.76 0.00 L 219.76 175.37 L 0.00 175.37 Z M 0.00 0.00" stroke-width="2.50" stroke="currentColor" stroke-linecap="round" stroke-linejoin="round" fill="none"  />

<path d="M 460.00 0.00 L 640.00 0.00 L 640.00 299.97 L 460.00 299.97 Z M 460.00 0.00" stroke-width="2.50" stroke="currentColor" stroke-linecap="round" stroke-linejoin="round" fill="none"  />

<path d="M 228.82 0.00 L 450.00 0.00 L 450.00 175.37 L 228.82 175.37 Z M 228.82 0.00" stroke-width="2.50" stroke="currentColor" stroke-linecap="round" stroke-linejoin="round" fill="none"  />

<path d="M 0.00 185.00 L 219.76 185.00 L 219.76 360.00 L 0.00 360.00 Z M 0.00 185.00" stroke-width="2.50" stroke="currentColor" stroke-linecap="round" stroke-linejoin="round" fill="none"  />

<text x="14.00" y="34.48" font-family="Helvetica" font-size="24.00px" fill="currentColor" opacity="1.00" font-weight="bold" >[[Player]]</text>
<text x="242.82" y="34.48" font-family="Helvetica" font-size="24.00px" fill="currentColor" opacity="1.00" font-weight="bold" >[[Browser]]</text>
<text x="14.00" y="219.48" font-family="Helvetica" font-size="24.00px" fill="currentColor" opacity="1.00" font-weight="bold" >[[Composer]]</text>
<text x="474.00" y="34.48" font-family="Helvetica" font-size="24.00px" fill="currentColor" opacity="1.00" font-weight="bold" >[[Inspector]]</text>
<text x="242.82" y="219.48" font-family="Helvetica" font-size="24.00px" fill="currentColor" opacity="1.00" font-weight="bold" >[[Timeline]]</text>
<path d="M 228.82 185.00 L 448.54 185.00 L 448.54 360.00 L 228.82 360.00 Z M 228.82 185.00" stroke-width="2.50" stroke="currentColor" stroke-linecap="round" stroke-linejoin="round" fill="none"  />

<path d="M 460.00 310.00 L 640.00 310.00 L 640.00 360.00 L 460.00 360.00 Z M 460.00 310.00" stroke-width="2.50" stroke="currentColor" stroke-linecap="round" stroke-linejoin="round" fill="none"  />

<text x="474.00" y="344.48" font-family="Helvetica" font-size="24.00px" fill="currentColor" opacity="1.00" font-weight="bold" >[[Activity]]</text>

</svg>