<?xml version="1.0" encoding="UTF-8"?>
<svg width="640" height="48" xmlns="http://www.w3.org/2000/svg" xmlns:xlink="http://www.w3.org/1999/xlink">
  <path d="M 24.40 0.00 C 10.92 0.00 0.00 10.89 0.00 24.33 L 0.00 24.33 C -0.00 34.81 6.72 44.11 16.68 47.42 C 17.90 47.63 18.36 46.90 18.36 46.26 C 18.36 45.68 18.33 43.77 18.33 41.73 C 12.20 42.86 10.61 40.24 10.12 38.87 C 9.85 38.17 8.66 36.01 7.62 35.43 C 6.77 34.98 5.55 33.85 7.59 33.82 C 9.51 33.79 10.89 35.59 11.34 36.32 C 13.54 40.00 17.05 38.96 18.45 38.32 C 18.66 36.74 19.30 35.68 20.00 35.07 C 14.58 34.46 8.90 32.36 8.90 23.06 C 8.90 20.41 9.85 18.22 11.40 16.51 C 11.16 15.91 10.31 13.41 11.65 10.07 C 11.65 10.07 13.69 9.43 18.36 12.56 L 18.36 12.56 C 20.34 12.01 22.39 11.74 24.46 11.74 C 26.53 11.74 28.60 12.01 30.56 12.56 C 35.22 9.40 37.26 10.07 37.26 10.07 C 38.61 13.41 37.75 15.91 37.51 16.52 C 39.06 18.22 40.01 20.38 40.01 23.06 C 40.01 32.39 34.31 34.46 28.88 35.07 C 29.76 35.83 30.53 37.29 30.53 39.57 C 30.53 42.83 30.49 45.44 30.49 46.26 C 30.49 46.90 30.95 47.66 32.17 47.42 L 32.17 47.42 C 42.10 44.07 48.79 34.79 48.79 24.33 C 48.79 10.89 37.87 0.00 24.40 0.00 Z M 24.40 0.00" stroke="none" fill="currentColor"  />
  <path d="M 79.85 21.46 L 70.04 21.46 C 69.78 21.46 69.58 21.67 69.58 21.92 L 69.58 26.71 C 69.58 26.96 69.78 27.17 70.04 27.17 L 73.86 27.17 L 73.86 33.11 C 73.86 33.11 73.00 33.41 70.63 33.41 C 67.82 33.41 63.90 32.38 63.90 23.79 C 63.90 15.20 67.98 14.07 71.81 14.07 C 75.13 14.07 76.56 14.65 77.47 14.93 C 77.75 15.01 78.02 14.73 78.02 14.48 L 79.11 9.85 C 79.11 9.73 79.07 9.59 78.94 9.50 C 78.57 9.23 76.32 7.98 70.63 7.98 C 64.07 7.98 57.35 10.76 57.35 24.13 C 57.35 37.50 65.05 39.49 71.53 39.49 C 76.90 39.49 80.16 37.20 80.16 37.20 C 80.30 37.13 80.31 36.94 80.31 36.85 L 80.31 21.92 C 80.31 21.67 80.11 21.46 79.85 21.46" stroke="none" fill="currentColor"  />
  <path d="M 130.44 9.58 C 130.44 9.32 130.24 9.12 129.99 9.12 L 124.46 9.12 C 124.21 9.12 124.00 9.32 124.00 9.58 C 124.00 9.58 124.00 20.23 124.00 20.23 L 115.39 20.23 L 115.39 9.58 C 115.39 9.32 115.18 9.12 114.93 9.12 L 109.40 9.12 C 109.15 9.12 108.95 9.32 108.95 9.58 L 108.95 38.43 C 108.95 38.68 109.15 38.89 109.40 38.89 L 114.93 38.89 C 115.18 38.89 115.39 38.68 115.39 38.43 L 115.39 26.09 L 124.00 26.09 C 124.00 26.09 123.99 38.43 123.99 38.43 C 123.99 38.68 124.19 38.89 124.45 38.89 L 129.99 38.89 C 130.24 38.89 130.44 38.68 130.44 38.43 Z M 130.44 9.58" stroke="none" fill="currentColor"  />
  <path d="M 90.28 13.36 C 90.28 11.38 88.69 9.77 86.72 9.77 C 84.75 9.77 83.15 11.38 83.15 13.36 C 83.15 15.35 84.75 16.96 86.72 16.96 C 88.69 16.96 90.28 15.35 90.28 13.36" stroke="none" fill="currentColor"  />
  <path d="M 89.89 32.34 L 89.89 19.03 C 89.89 18.77 89.68 18.57 89.43 18.57 L 83.92 18.57 C 83.67 18.57 83.44 18.83 83.44 19.08 L 83.44 38.16 C 83.44 38.72 83.79 38.88 84.24 38.88 L 89.21 38.88 C 89.75 38.88 89.89 38.62 89.89 38.15 Z M 89.89 32.34" stroke="none" fill="currentColor"  />
  <path d="M 151.45 18.61 L 145.96 18.61 C 145.71 18.61 145.51 18.82 145.51 19.07 L 145.51 33.22 C 145.51 33.22 144.11 34.23 142.14 34.23 C 140.16 34.23 139.63 33.34 139.63 31.41 L 139.63 19.07 C 139.63 18.82 139.43 18.61 139.18 18.61 L 133.61 18.61 C 133.36 18.61 133.15 18.82 133.15 19.07 L 133.15 32.34 C 133.15 38.08 136.36 39.48 140.77 39.48 C 144.39 39.48 147.31 37.49 147.31 37.49 C 147.31 37.49 147.44 38.54 147.51 38.66 C 147.57 38.79 147.73 38.91 147.91 38.91 L 151.45 38.90 C 151.70 38.90 151.91 38.69 151.91 38.44 L 151.91 19.07 C 151.91 18.82 151.70 18.61 151.45 18.61" stroke="none" fill="currentColor"  />
  <path d="M 164.28 34.22 C 162.37 34.16 161.08 33.30 161.08 33.30 L 161.08 24.16 C 161.08 24.16 162.36 23.38 163.92 23.24 C 165.89 23.07 167.80 23.66 167.80 28.36 C 167.80 33.32 166.94 34.30 164.28 34.22 M 166.44 17.96 C 163.33 17.96 161.21 19.35 161.21 19.35 L 161.21 9.58 C 161.21 9.32 161.00 9.12 160.75 9.12 L 155.21 9.12 C 154.96 9.12 154.75 9.32 154.75 9.58 L 154.75 38.43 C 154.75 38.68 154.96 38.89 155.21 38.89 L 159.05 38.89 C 159.23 38.89 159.36 38.80 159.46 38.64 C 159.55 38.49 159.69 37.31 159.69 37.31 C 159.69 37.31 161.96 39.46 166.25 39.46 C 171.28 39.46 174.17 36.91 174.17 28.02 C 174.17 19.12 169.56 17.96 166.44 17.96" stroke="none" fill="currentColor"  />
  <path d="M 105.77 18.56 L 101.63 18.56 C 101.63 18.56 101.62 13.10 101.62 13.10 C 101.62 12.89 101.51 12.79 101.27 12.79 L 95.62 12.79 C 95.40 12.79 95.29 12.89 95.29 13.10 L 95.29 18.74 C 95.29 18.74 92.45 19.42 92.26 19.48 C 92.07 19.53 91.93 19.71 91.93 19.92 L 91.93 23.47 C 91.93 23.72 92.14 23.93 92.39 23.93 L 95.29 23.93 L 95.29 32.46 C 95.29 38.80 99.74 39.43 102.75 39.43 C 104.13 39.43 105.77 38.98 106.04 38.89 C 106.21 38.82 106.30 38.66 106.30 38.47 L 106.31 34.57 C 106.31 34.31 106.09 34.11 105.85 34.11 C 105.61 34.11 104.99 34.21 104.35 34.21 C 102.32 34.21 101.63 33.26 101.63 32.04 C 101.63 30.82 101.63 23.93 101.63 23.93 L 105.77 23.93 C 106.03 23.93 106.23 23.72 106.23 23.47 L 106.23 19.02 C 106.23 18.77 106.03 18.56 105.77 18.56" stroke="none" fill="currentColor"  />
</svg>