<?xml version="1.0" encoding="UTF-8"?>
<svg width="54" height="24" xmlns="http://www.w3.org/2000/svg" xmlns:xlink="http://www.w3.org/1999/xlink">
<defs>
	<linearGradient id="gradient_0" gradientUnits="userSpaceOnUse" x1="52.92" y1="10.91" x2="0.04" y2="10.70">
		<stop offset="0%" stop-color="#509eb0"/>
		<stop offset="100%" stop-color="#525daa"/>
	</linearGradient>
</defs>
<path d="M 10.70 0.01 C 10.02 0.01 9.43 0.25 8.93 0.74 L 8.93 0.74 L 0.82 8.74 C 0.32 9.27 0.04 9.89 0.00 10.60 L 0.00 10.60 C 0.00 11.27 0.25 11.85 0.75 12.34 L 0.75 12.34 C 1.30 12.83 1.91 13.05 2.59 13.00 L 2.59 13.00 C 3.27 13.05 3.86 12.80 4.36 12.27 L 4.36 12.27 L 10.70 6.20 L 16.29 11.74 C 17.10 12.49 17.53 12.89 17.58 12.94 L 17.58 12.94 C 18.08 13.43 18.67 13.67 19.35 13.67 L 19.35 13.67 C 20.03 13.72 20.65 13.49 21.19 13.00 L 21.19 13.00 C 21.24 12.96 21.65 12.54 22.42 11.74 L 22.42 11.74 C 23.24 10.94 24.19 10.03 25.28 9.00 L 25.28 9.00 C 26.37 7.89 27.30 6.96 28.07 6.20 L 28.07 6.20 L 38.16 16.27 C 38.66 16.76 39.23 17.03 39.86 17.07 L 39.86 17.07 L 46.74 17.07 L 46.68 21.60 L 53.83 14.60 L 46.74 7.47 L 46.74 12.07 L 41.02 12.00 L 29.85 0.80 C 29.34 0.36 28.76 0.14 28.07 0.14 L 28.07 0.14 C 27.39 0.10 26.78 0.32 26.23 0.80 L 26.23 0.80 L 19.42 7.60 L 13.76 2.07 C 12.95 1.23 12.52 0.78 12.47 0.74 L 12.47 0.74 C 11.97 0.25 11.43 0.00 10.84 0.00 L 10.84 0.00 C 10.80 0.00 10.75 0.00 10.70 0.01" stroke="none" fill="url(#gradient_0)"  />

<defs>
	<linearGradient id="gradient_1" gradientUnits="userSpaceOnUse" x1="0.12" y1="16.99" x2="44.97" y2="17.16">
		<stop offset="0%" stop-color="#69bdcf"/>
		<stop offset="100%" stop-color="#6e74b7"/>
		<stop offset="100%" stop-color="#6e74b7"/>
	</linearGradient>
</defs>
<path d="M 9.54 10.87 L 3.20 17.07 L 0.00 13.94 L 0.00 23.87 L 10.09 23.87 L 6.81 20.67 C 6.86 20.67 6.91 20.65 6.95 20.60 L 6.95 20.60 L 11.38 16.27 L 18.26 23.07 C 18.76 23.56 19.35 23.80 20.03 23.80 L 20.03 23.80 C 20.72 23.85 21.33 23.63 21.87 23.14 L 21.87 23.14 L 28.69 16.27 L 35.64 23.27 C 36.14 23.71 36.73 23.94 37.41 23.94 L 37.41 23.94 L 42.52 24.00 C 43.25 23.96 43.86 23.71 44.36 23.27 L 44.36 23.27 C 44.86 22.78 45.11 22.16 45.11 21.40 L 45.11 21.40 C 45.11 20.69 44.86 20.09 44.36 19.60 L 44.36 19.60 C 43.91 19.16 43.32 18.94 42.59 18.94 L 42.59 18.94 L 38.50 18.87 L 30.53 10.94 C 30.03 10.49 29.44 10.27 28.76 10.27 L 28.76 10.27 C 28.07 10.23 27.46 10.45 26.92 10.94 L 26.92 10.94 L 20.03 17.67 L 13.08 10.87 C 12.58 10.38 12.02 10.14 11.38 10.14 L 11.38 10.14 C 10.70 10.14 10.09 10.38 9.54 10.87" stroke="none" fill="url(#gradient_1)"  />


</svg>
