<?xml version="1.0" standalone="no"?>
<!DOCTYPE svg PUBLIC "-//W3C//DTD SVG 1.1//EN" "http://www.w3.org/Graphics/SVG/1.1/DTD/svg11.dtd" >
<svg xmlns="http://www.w3.org/2000/svg">
<metadata>
This is a custom SVG webfont generated by Font Squirrel.
Copyright   : Copyright c 2012 by SURSLY  Tyler Finck All rights reserved
Designer    : Tyler Finck
Foundry     : SURSLY  Tyler Finck
Foundry URL : httpwwwsurslycom
</metadata>
<defs>
<font id="BlackoutMidnight" horiz-adv-x="485" >
<font-face units-per-em="2048" ascent="1638" descent="-410" />
<missing-glyph horiz-adv-x="583" />
<glyph unicode=" "  horiz-adv-x="583" />
<glyph unicode="&#x09;" horiz-adv-x="583" />
<glyph unicode="&#xa0;" horiz-adv-x="583" />
<glyph unicode="!" horiz-adv-x="481" d="M0 1524h350l-41 -1059h-268zM41 0v303h268v-303h-268z" />
<glyph unicode="&#x22;" horiz-adv-x="481" d="M0 1524h207l-21 -281h-166zM246 1524h207l-21 -281h-166z" />
<glyph unicode="#" horiz-adv-x="1605" d="M0 379l31 344h254l10 127h-254l31 344h252l26 330h344l-26 -330h188l27 330h344l-27 -330h293l-31 -344h-291l-10 -127h291l-31 -344h-286l-31 -379h-344l31 379h-189l-31 -379h-344l31 379h-258zM629 723h188l10 127h-188z" />
<glyph unicode="$" horiz-adv-x="929" d="M2 537h340q0 -29 20.5 -49.5t49.5 -20.5t49 20.5t20 49.5q0 27 -16 45t-41 22h-12q-84 0 -159 33t-130 88t-88 130t-33 159q0 131 71.5 233.5t186.5 149.5v137h344v-156q98 -53 157.5 -149t59.5 -215h-340q0 29 -20.5 50t-48.5 21q-29 0 -49.5 -21.5t-20.5 -49.5 q0 -25 16.5 -44.5t40.5 -23.5h13q84 0 158.5 -32.5t130 -88t88 -130t32.5 -158.5q0 -119 -59.5 -214.5t-157.5 -148.5v-174h-344v156q-57 23 -104 60.5t-81 87.5t-53.5 108.5t-19.5 124.5z" />
<glyph unicode="%" horiz-adv-x="1550" d="M2 1026q0 51 19.5 96t53.5 79t79 53.5t96 19.5t95 -19.5t78 -53.5t53.5 -79t19.5 -96t-19.5 -96t-53.5 -79t-78 -53.5t-95 -19.5t-96 19.5t-79 53.5t-53.5 79t-19.5 96zM90 0l895 1524h344l-895 -1524h-344zM965 526q0 51 19.5 95.5t53 78t78.5 53t96 19.5t96.5 -19.5 t79 -53t53 -77.5t19.5 -96q0 -51 -19.5 -96t-53 -79t-78.5 -53t-97 -19q-51 0 -96 19t-78.5 53t-53 79t-19.5 96z" />
<glyph unicode="&#x26;" horiz-adv-x="1435" d="M0 508q0 133 61.5 243.5t163.5 178.5q-35 47 -53 101t-18 116q0 74 27.5 138.5t76.5 112.5t113.5 75.5t138.5 27.5t138.5 -27.5t112.5 -75.5t75.5 -112.5t27.5 -138.5q0 -104 -54 -189.5t-142 -128.5l231 -233l201 199l203 -205l-199 -197l188 -190l-211 -211l-186 186 q-72 -82 -170 -130t-215 -48q-104 0 -197.5 40t-163 108.5t-109.5 162t-40 197.5z" />
<glyph unicode="'" horiz-adv-x="299" d="M0 1524h207l-21 -281h-166z" />
<glyph unicode="(" horiz-adv-x="534" d="M18 779q2 169 48.5 358.5t158.5 386.5h365q-104 -150 -158.5 -294.5t-74 -278.5t-10.5 -257t36 -229q61 -248 207 -465h-365q-6 0 -39.5 58.5t-70.5 162t-68 246.5t-29 312z" />
<glyph unicode=")" horiz-adv-x="534" d="M-31 0q102 147 157.5 291.5t75 280t10.5 258t-36 229.5q-61 248 -207 465h365q6 0 40 -58.5t70.5 -162t67.5 -247t29 -312.5t-48.5 -358t-158.5 -386h-365z" />
<glyph unicode="*" horiz-adv-x="894" d="M-37 1253l57 217l234 -61v213h225v-215l238 63l57 -217l-203 -55l144 -143l-158 -160l-188 188l-191 -192l-160 158l150 149z" />
<glyph unicode="+" horiz-adv-x="1204" d="M0 614v344h358v357h344v-357h359v-344h-359v-358h-344v358h-358z" />
<glyph unicode="," horiz-adv-x="477" d="M2 0v283h281v-283l-109 -190h-129l47 190h-90z" />
<glyph unicode="-" horiz-adv-x="1200" d="M0 616v345h1059v-345h-1059z" />
<glyph unicode="." horiz-adv-x="468" d="M0 0v283h281v-283h-281z" />
<glyph unicode="/" d="M-164 0l471 1524h344l-471 -1524h-344z" />
<glyph unicode="0" horiz-adv-x="1038" d="M0 426v649q0 96 34 178t95 142.5t148.5 94.5t193.5 34q104 0 190.5 -34t147.5 -94.5t95 -142.5t34 -178v-2h2h-2q0 -12 1 -25.5t1 -23.5v-526q0 -10 -1 -22.5t-1 -24.5v-2l2 -3h-2q0 -96 -34 -178t-95 -141t-147.5 -93t-190.5 -34q-102 0 -189 34t-149.5 92t-97.5 136 t-35 164z" />
<glyph unicode="1" horiz-adv-x="671" d="M-92 1210l299 314h344v-1524h-344v1040l-55 -73z" />
<glyph unicode="2" horiz-adv-x="1046" d="M0 1053q0 96 35 182t96.5 150.5t145 101.5t180.5 37q80 0 151.5 -24.5t131 -69t102.5 -105.5t65 -133q20 -63 21 -139q0 -98 -36 -178t-101 -150l-340 -381h473v-344h-916v344l557 643q18 27 19 66q0 16 -4 37q-12 39 -43 70.5t-74 31.5q-39 0 -65.5 -13.5t-42 -35 t-22.5 -46t-7 -44.5h-326z" />
<glyph unicode="3" horiz-adv-x="1032" d="M0 473h113h231q0 -53 37 -91t90 -38q43 0 76 25.5t45 64.5q6 14 6 37q0 53 -37 98t-90 45h-98v295h98q53 0 90 45t37 99q0 20 -6 37q-12 39 -45 64.5t-76 25.5q-53 0 -90 -37t-37 -90h-344q0 96 37 182t101.5 150.5t149.5 101.5t183 37q80 0 151.5 -24.5t131 -69 t102.5 -105.5t66 -133q20 -63 20 -139q0 -84 -27.5 -158t-76.5 -133q49 -59 76.5 -132t27.5 -157q0 -78 -20 -141q-23 -72 -66 -133.5t-102.5 -105.5t-131 -68.5t-151.5 -24.5q-98 0 -183 37t-149.5 101.5t-101.5 150.5t-37 184z" />
<glyph unicode="4" horiz-adv-x="1105" d="M-16 385v344l501 791v4h344v-795h185v-344h-185v-385h-344v385h-501z" />
<glyph unicode="5" horiz-adv-x="1042" d="M0 471h344q0 -53 40 -91t93 -38t91 32t38 85v149q0 49 -32.5 88t-96.5 39q-53 0 -93 -36.5t-40 -90.5h-344v912h913v-344h-569v-177q6 14 24.5 25.5t40 20t44 11.5t39.5 3q121 0 205.5 -39t139 -100.5t80 -138t25.5 -150.5v-58v-6v-137q0 -98 -37 -177t-101.5 -136.5 t-150.5 -88t-182 -30.5q-98 0 -183 37t-149.5 101.5t-101.5 150.5t-37 184z" />
<glyph unicode="6" horiz-adv-x="1046" d="M0 434v627q0 88 33 173t94 150.5t149.5 105.5t196.5 40q96 0 179 -34t143.5 -94.5t94.5 -143t34 -181.5h-324q0 53 -37 91t-90 38t-90 -38t-37 -91h-2v-217q4 14 21.5 29.5t41 26t47 17.5t40.5 7q209 0 319.5 -127t110.5 -342v-2q0 -98 -30 -183t-86 -149.5t-140 -101.5 t-195 -37t-199 32.5t-148 91t-93 138.5t-33 174z" />
<glyph unicode="7" horiz-adv-x="1064" d="M-10 0l614 1159h-602v365h807h20h142v-365l-617 -1159h-364z" />
<glyph unicode="8" horiz-adv-x="1034" d="M0 489v3q0 43 13.5 89t35 90t48 84t50.5 68q-49 59 -88 132t-39 159v2q0 96 35 172t94.5 128t142.5 80t179 28t179 -28t142.5 -80t94.5 -128t35 -172v-2q0 -86 -39 -158.5t-88 -132.5q25 -29 50 -68.5t46.5 -83.5t36 -90t14.5 -89v-3q0 -104 -34 -194t-95 -155.5 t-148 -102.5t-194 -37q-106 0 -193.5 36t-148.5 100.5t-95 154t-34 198.5z" />
<glyph unicode="9" horiz-adv-x="1046" d="M2 453h324q0 -53 36.5 -91t90.5 -38q53 0 90 37.5t37 91.5h2v217q-4 -16 -21.5 -30.5t-41 -25t-47 -17.5t-40.5 -7q-209 0 -319.5 127t-110.5 342v2q0 98 29.5 183t86 149.5t140.5 101.5t195 37t198.5 -33t148 -91t93.5 -138t33 -174v-627q0 -90 -23.5 -174t-79 -149.5 t-145.5 -105.5t-225 -40q-96 0 -179.5 34t-143.5 94t-94 143.5t-34 181.5z" />
<glyph unicode=":" horiz-adv-x="536" d="M0 330v282h279v-282h-279zM0 997v283h279v-283h-279z" />
<glyph unicode=";" horiz-adv-x="501" d="M0 997v283h279v-283h-279zM2 332v282h281v-282l-109 -191h-129l47 191h-90z" />
<glyph unicode="&#x3c;" horiz-adv-x="1044" d="M0 778l614 746h406l-614 -742l614 -782h-406z" />
<glyph unicode="=" horiz-adv-x="1110" d="M0 274v344h1059v-344h-1059zM0 987v344h1059v-344h-1059z" />
<glyph unicode="&#x3e;" horiz-adv-x="1044" d="M-8 0l614 741l-614 783h405l615 -779l-615 -745h-405z" />
<glyph unicode="?" horiz-adv-x="1034" d="M2 1126q0 98 38 172t104.5 123t154.5 75t188 26h2q98 0 180.5 -32t142.5 -88t94 -135t34 -177q0 -84 -18.5 -138.5t-48 -93.5t-68.5 -66.5t-80 -57t-82 -66.5t-76 -93q-12 -23 -16 -61q-2 -20 -2 -43h-283v61q0 76 14.5 133.5t40 101.5t59.5 75.5t75 56.5q84 53 113.5 90 t29.5 74q0 53 -40 85t-93 32q-61 0 -102 -39t-41 -92zM268 0v283h281v-283h-281z" />
<glyph unicode="@" horiz-adv-x="1374" d="M-2 600v315q2 113 44 222.5t121 195.5t191.5 138.5t253.5 52.5h2q150 0 267.5 -53.5t199.5 -140.5t125 -200.5t43 -232.5q0 -37 -3 -84t-11 -94t-23.5 -89t-38.5 -69q-53 -61 -102 -71.5t-89 2t-65.5 34t-27.5 21.5q-4 0 -19.5 -17.5t-47.5 -40t-79 -41t-114 -18.5 q-59 0 -102.5 25.5t-72 64.5t-43 87t-14.5 93v119q0 70 21.5 122t54.5 87t69.5 51.5t67.5 16.5q68 0 111 -11.5t72.5 -31t53 -48t52.5 -65.5q-14 109 -84 174.5t-201 65.5q-51 0 -102 -31t-93 -79t-67.5 -107.5t-25.5 -114.5v-195q0 -55 25.5 -111.5t67.5 -101.5t93 -73.5 t102 -28.5t89 5t70 17.5t63.5 31t70.5 44.5l207 -258q-35 -35 -91 -66.5t-124 -57t-141.5 -41t-143.5 -15.5h-2q-156 0 -268.5 49t-186 132t-111.5 192.5t-44 228.5z" />
<glyph unicode="A" horiz-adv-x="1378" d="M-59 0l446 1524h459l446 -1524h-391l-137 401h-297l-135 -401h-391z" />
<glyph unicode="B" horiz-adv-x="1013" d="M0 -2v1524h365h-21h10q113 0 197 -29t137 -78t80 -114.5t27 -141.5q0 -80 -21.5 -145.5t-55.5 -112.5t-75 -73.5t-78 -26.5q92 0 155.5 -38t103.5 -95.5t58.5 -125t18.5 -124.5q0 -84 -25.5 -160t-75.5 -134t-126 -92t-176 -34h-11h-487z" />
<glyph unicode="C" horiz-adv-x="1245" d="M-2 600v315q2 113 38 222.5t106.5 195.5t177 138.5t247.5 52.5h2q125 0 215 -35t155 -90.5t104.5 -125t62.5 -138.5l-297 -166q-12 37 -33.5 75.5t-52.5 69.5t-70 49q-35 17 -73 17h-9q-104 -8 -166.5 -83t-62.5 -188v-297q0 -113 63.5 -189.5t167.5 -84.5q9 -1 19 -1 q76 0 128 46q58 51 89 123l297 -166q-18 -37 -52 -94.5t-95.5 -112.5t-156.5 -95t-235 -40h-2q-156 0 -261 49t-171.5 132t-97.5 192.5t-37 228.5z" />
<glyph unicode="D" horiz-adv-x="1189" d="M0 0v1524h307q178 0 313.5 -58.5t225.5 -160t135 -241.5t45 -302q0 -154 -35 -292t-114.5 -242.5t-208.5 -166t-316 -61.5h-45h-307z" />
<glyph unicode="E" horiz-adv-x="1069" d="M0 0v1524h934v-344h-590v-246h434v-344h-434v-246h590v-344h-934z" />
<glyph unicode="F" horiz-adv-x="1026" d="M2 0v1524h934v-344h-590v-246h434v-344h-434v-590h-344z" />
<glyph unicode="G" horiz-adv-x="1294" d="M4 600v315q0 123 37 234t108.5 193.5t178 132t245.5 49.5h2q139 -6 226.5 -48t139.5 -97.5t79 -111t47 -85.5l-283 -187q-10 23 -23 51.5t-37 53t-58.5 42t-87.5 17.5q-102 0 -163 -68.5t-61 -181.5v-297q0 -55 18.5 -103t50.5 -82t75 -54.5t94 -20.5h10q65 0 106 25 q44 27 66 67v76h-162v295h492v-532q-39 -55 -93.5 -107.5t-121 -91.5t-146 -62.5t-168.5 -23.5h-2q-137 0 -241.5 45t-175 125t-109.5 190.5t-43 241.5z" />
<glyph unicode="H" horiz-adv-x="1257" d="M0 0v1524h344v-590h408v590h344v-1524h-344v590h-408v-590h-344z" />
<glyph unicode="I" d="M0 0v1524h344v-1524h-344z" />
<glyph unicode="J" horiz-adv-x="1085" d="M0 473v152h350v-131q0 -53 34 -91t87 -38t88 37.5t35 91.5v1030h350v-1059q0 -117 -38 -204t-102.5 -145.5t-150.5 -87t-182 -28.5q-98 0 -183 29.5t-149.5 88t-101.5 147.5t-37 208z" />
<glyph unicode="K" horiz-adv-x="1148" d="M0 0v1524h344v-355l248 355h426l-567 -764l565 -760h-426l-246 330v-330h-344z" />
<glyph unicode="L" horiz-adv-x="882" d="M0 0v1524h344v-1180h408v-344h-752z" />
<glyph unicode="M" horiz-adv-x="1474" d="M0 0v1524h350l316 -885l317 885h344v-1524h-364v532l-187 -532h-221l-190 549v-549h-365z" />
<glyph unicode="N" horiz-adv-x="1236" d="M2 0v1524h350l408 -748v748h364v-1524h-348l-409 750v-750h-365z" />
<glyph unicode="O" horiz-adv-x="1249" d="M4 606v357q0 98 39 199.5t111 178.5q86 88 192.5 135.5t226.5 47.5h2q121 0 228.5 -47t191.5 -136q74 -78 111 -176t39 -202v-357q0 -111 -34 -224.5t-116 -199.5q-84 -90 -191.5 -137t-228.5 -47h-2q-119 0 -226 47t-193 135q-80 86 -114 194.5t-36 231.5z" />
<glyph unicode="P" horiz-adv-x="1017" d="M0 0v1524h463h2q98 0 178 -35t136.5 -99.5t87 -155.5t30.5 -204q0 -111 -30.5 -201t-87 -155.5t-136.5 -101t-178 -35.5h-2h-113v-537h-350z" />
<glyph unicode="Q" horiz-adv-x="1361" d="M4 606v357q8 109 42 205t108 173q84 88 191.5 135.5t227.5 47.5h2q119 0 226.5 -47t193.5 -136q72 -78 106 -174t44 -204v-45v-189v-102v-45q-2 -68 -12.5 -120t-45.5 -112l209 10v-356l-184 -4h-250q-41 0 -113.5 -1t-173.5 -1h-2q-80 0 -140 12.5t-108.5 35t-89 57 t-81.5 77.5q-82 86 -116 194.5t-34 231.5z" />
<glyph unicode="R" horiz-adv-x="1069" d="M0 0v1524h463h2q131 0 218 -40t139 -106.5t75 -155.5t23 -188q0 -102 -34 -182t-80 -134t-93 -82t-74 -28l309 -608h-395l-205 496h-4v-496h-344z" />
<glyph unicode="S" horiz-adv-x="1120" d="M0 350l328 137q-4 -2 9 -28.5t37.5 -56t60.5 -53.5q28 -19 60 -18q8 0 17 1q35 4 69 30q32 25 31 78q0 39 -27 71q-26 30 -73 62q-104 70 -193.5 122.5t-156 109.5t-104.5 129t-38 180q0 100 41 176t109 127t156 78t182 29q113 0 198 -32t143 -81t91 -111.5t43 -123.5 l-301 -119q-6 23 -18.5 50.5t-34 51t-51 39.5t-68.5 16q-41 0 -75 -25.5t-34 -76.5q0 -39 32 -68.5t99 -78.5q94 -53 181.5 -106.5t155 -121t108.5 -152.5t41 -202v-29q-4 -74 -42 -138t-104.5 -112.5t-161 -76t-212.5 -27.5q-92 0 -173 24.5t-146.5 69.5t-112 109.5 t-66.5 146.5z" />
<glyph unicode="T" horiz-adv-x="1128" d="M-18 1180v344h1036v-344h-346v-1180h-344v1180h-346z" />
<glyph unicode="U" horiz-adv-x="1236" d="M2 608v918h354v-891q0 -55 11.5 -104.5t36 -86t61.5 -58t88 -21.5t88 21.5t60.5 58t35 86t11.5 104.5v891h354v-918q0 -135 -36 -247.5t-104.5 -193.5t-170.5 -125q-98 -42 -226 -42h-12h-2h-12q-142 0 -242 47q-104 49 -170 134t-95.5 195.5t-29.5 231.5z" />
<glyph unicode="V" horiz-adv-x="1339" d="M10 1524h406l229 -688l225 688h406l-490 -1524h-307z" />
<glyph unicode="W" horiz-adv-x="1888" d="M4 1524h406l161 -684l160 684h289l160 -684l159 684h426l-432 -1524h-309l-139 643l-160 -643h-330z" />
<glyph unicode="X" horiz-adv-x="1261" d="M4 0l410 762l-410 762h385l197 -402l196 402h385l-409 -762l409 -762h-385l-196 401l-197 -401h-385z" />
<glyph unicode="Y" horiz-adv-x="1181" d="M-14 1524h385l178 -361l176 361h385l-410 -762v-762h-323v762z" />
<glyph unicode="Z" horiz-adv-x="1128" d="M0 0v344l551 836h-551v344h973v-344l-533 -836h533v-344h-973z" />
<glyph unicode="[" horiz-adv-x="722" d="M0 0v1524h688v-322h-344v-880h344v-322h-688z" />
<glyph unicode="\" d="M-106 1528h344l473 -1528h-344z" />
<glyph unicode="]" horiz-adv-x="722" d="M-18 0v322h344v880h-344v322h688v-1524h-688z" />
<glyph unicode="_" horiz-adv-x="1030" d="M0 0h1059v-344h-1059v344z" />
<glyph unicode="`" d="M-2 1180v344h342v-344l-109 -191h-208l108 191h-133z" />
<glyph unicode="a" horiz-adv-x="1368" d="M-59 0l446 1524h459l446 -1524h-391l-137 401h-297l-135 -401h-391z" />
<glyph unicode="b" horiz-adv-x="1013" d="M0 -2v1524h365h-21h10q113 0 197 -29t137 -78t80 -114.5t27 -141.5q0 -80 -21.5 -145.5t-55.5 -112.5t-75 -73.5t-78 -26.5q92 0 155.5 -38t103.5 -95.5t58.5 -125t18.5 -124.5q0 -84 -25.5 -160t-75.5 -134t-126 -92t-176 -34h-11h-487z" />
<glyph unicode="c" horiz-adv-x="1245" d="M-2 600v315q2 113 38 222.5t106.5 195.5t177 138.5t247.5 52.5h2q125 0 215 -35t155 -90.5t104.5 -125t62.5 -138.5l-297 -166q-12 37 -33.5 75.5t-52.5 69.5t-70 49q-35 17 -73 17h-9q-104 -8 -166.5 -83t-62.5 -188v-297q0 -113 63.5 -189.5t167.5 -84.5q9 -1 19 -1 q76 0 128 46q58 51 89 123l297 -166q-18 -37 -52 -94.5t-95.5 -112.5t-156.5 -95t-235 -40h-2q-156 0 -261 49t-171.5 132t-97.5 192.5t-37 228.5z" />
<glyph unicode="d" horiz-adv-x="1189" d="M0 0v1524h307q178 0 313.5 -58.5t225.5 -160t135 -241.5t45 -302q0 -154 -35 -292t-114.5 -242.5t-208.5 -166t-316 -61.5h-45h-307z" />
<glyph unicode="e" horiz-adv-x="1069" d="M0 0v1524h934v-344h-590v-246h434v-344h-434v-246h590v-344h-934z" />
<glyph unicode="f" horiz-adv-x="1026" d="M2 0v1524h934v-344h-590v-246h434v-344h-434v-590h-344z" />
<glyph unicode="g" horiz-adv-x="1294" d="M4 600v315q0 123 37 234t108.5 193.5t178 132t245.5 49.5h2q139 -6 226.5 -48t139.5 -97.5t79 -111t47 -85.5l-283 -187q-10 23 -23 51.5t-37 53t-58.5 42t-87.5 17.5q-102 0 -163 -68.5t-61 -181.5v-297q0 -55 18.5 -103t50.5 -82t75 -54.5t94 -20.5h10q65 0 106 25 q44 27 66 67v76h-162v295h492v-532q-39 -55 -93.5 -107.5t-121 -91.5t-146 -62.5t-168.5 -23.5h-2q-137 0 -241.5 45t-175 125t-109.5 190.5t-43 241.5z" />
<glyph unicode="h" horiz-adv-x="1257" d="M0 0v1524h344v-590h408v590h344v-1524h-344v590h-408v-590h-344z" />
<glyph unicode="i" d="M0 0v1524h344v-1524h-344z" />
<glyph unicode="j" horiz-adv-x="1085" d="M0 473v152h350v-131q0 -53 34 -91t87 -38t88 37.5t35 91.5v1030h350v-1059q-2 -96 -40 -181t-101.5 -148.5t-149.5 -99.5t-182 -36q-98 0 -183 37t-149.5 101.5t-101.5 150.5t-37 184z" />
<glyph unicode="k" horiz-adv-x="1148" d="M0 0v1524h344v-355l248 355h426l-567 -764l565 -760h-426l-246 330v-330h-344z" />
<glyph unicode="l" horiz-adv-x="882" d="M0 0v1524h344v-1180h408v-344h-752z" />
<glyph unicode="m" horiz-adv-x="1474" d="M0 0v1524h350l316 -885l317 885h344v-1524h-364v532l-187 -532h-221l-190 549v-549h-365z" />
<glyph unicode="n" horiz-adv-x="1236" d="M2 0v1524h350l408 -748v748h364v-1524h-348l-409 750v-750h-365z" />
<glyph unicode="o" horiz-adv-x="1249" d="M4 606v357q0 98 39 199.5t111 178.5q86 88 192.5 135.5t226.5 47.5h2q121 0 228.5 -47t191.5 -136q74 -78 111 -176t39 -202v-357q0 -111 -34 -224.5t-116 -199.5q-84 -90 -191.5 -137t-228.5 -47h-2q-119 0 -226 47t-193 135q-80 86 -114 194.5t-36 231.5z" />
<glyph unicode="p" horiz-adv-x="1017" d="M0 0v1524h463h2q98 0 178 -35t136.5 -99.5t87 -155.5t30.5 -204q0 -111 -30.5 -201t-87 -155.5t-136.5 -101t-178 -35.5h-2h-113v-537h-350z" />
<glyph unicode="q" horiz-adv-x="1361" d="M4 606v357q8 109 42 205t108 173q84 88 191.5 135.5t227.5 47.5h2q119 0 226.5 -47t193.5 -136q72 -78 106 -174t44 -204v-45v-189v-102v-45q-2 -68 -12.5 -120t-45.5 -112l209 10v-356l-184 -4h-250q-41 0 -113.5 -1t-173.5 -1h-2q-80 0 -140 12.5t-108.5 35t-89 57 t-81.5 77.5q-82 86 -116 194.5t-34 231.5z" />
<glyph unicode="r" horiz-adv-x="1069" d="M0 0v1524h463h2q131 0 218 -40t139 -106.5t75 -155.5t23 -188q0 -102 -34 -182t-80 -134t-93 -82t-74 -28l309 -608h-395l-205 496h-4v-496h-344z" />
<glyph unicode="s" horiz-adv-x="1120" d="M0 350l328 137q-4 -2 9 -28.5t37.5 -56t60.5 -53.5q28 -19 60 -18q8 0 17 1q35 4 69 30q32 25 31 78q0 39 -27 71q-26 30 -73 62q-104 70 -193.5 122.5t-156 109.5t-104.5 129t-38 180q0 100 41 176t109 127t156 78t182 29q113 0 198 -32t143 -81t91 -111.5t43 -123.5 l-301 -119q-6 23 -18.5 50.5t-34 51t-51 39.5t-68.5 16q-41 0 -75 -25.5t-34 -76.5q0 -39 32 -68.5t99 -78.5q94 -53 181.5 -106.5t155 -121t108.5 -152.5t41 -202v-29q-4 -74 -42 -138t-104.5 -112.5t-161 -76t-212.5 -27.5q-92 0 -173 24.5t-146.5 69.5t-112 109.5 t-66.5 146.5z" />
<glyph unicode="t" horiz-adv-x="1128" d="M-18 1180v344h1036v-344h-346v-1180h-344v1180h-346z" />
<glyph unicode="u" horiz-adv-x="1236" d="M2 608v918h354v-891q0 -55 11.5 -104.5t36 -86t61.5 -58t88 -21.5t88 21.5t60.5 58t35 86t11.5 104.5v891h354v-918q0 -135 -36 -247.5t-104.5 -193.5t-170.5 -125q-98 -42 -226 -42h-12h-2h-12q-142 0 -242 47q-104 49 -170 134t-95.5 195.5t-29.5 231.5z" />
<glyph unicode="v" horiz-adv-x="1339" d="M10 1524h406l229 -688l225 688h406l-490 -1524h-307z" />
<glyph unicode="w" horiz-adv-x="1888" d="M4 1524h406l161 -684l160 684h289l160 -684l159 684h426l-432 -1524h-309l-139 643l-160 -643h-330z" />
<glyph unicode="x" horiz-adv-x="1261" d="M4 0l410 762l-410 762h385l197 -402l196 402h385l-409 -762l409 -762h-385l-196 401l-197 -401h-385z" />
<glyph unicode="y" horiz-adv-x="1181" d="M-14 1524h385l178 -361l176 361h385l-410 -762v-762h-323v762z" />
<glyph unicode="z" horiz-adv-x="1128" d="M0 0v344l551 836h-551v344h973v-344l-533 -836h533v-344h-973z" />
<glyph unicode="|" d="M0 -164v1852h344v-1852h-344z" />
<glyph unicode="&#xaa;" horiz-adv-x="1368" d="M-59 0l446 1524h459l446 -1524h-391l-137 401h-297l-135 -401h-391z" />
<glyph unicode="&#xad;" horiz-adv-x="1200" d="M0 616v345h1059v-345h-1059z" />
<glyph unicode="&#xb2;" horiz-adv-x="1046" d="M0 1053q0 96 35 182t96.5 150.5t145 101.5t180.5 37q80 0 151.5 -24.5t131 -69t102.5 -105.5t65 -133q20 -63 21 -139q0 -98 -36 -178t-101 -150l-340 -381h473v-344h-916v344l557 643q18 27 19 66q0 16 -4 37q-12 39 -43 70.5t-74 31.5q-39 0 -65.5 -13.5t-42 -35 t-22.5 -46t-7 -44.5h-326z" />
<glyph unicode="&#xb3;" horiz-adv-x="1032" d="M0 473h113h231q0 -53 37 -91t90 -38q43 0 76 25.5t45 64.5q6 14 6 37q0 53 -37 98t-90 45h-98v295h98q53 0 90 45t37 99q0 20 -6 37q-12 39 -45 64.5t-76 25.5q-53 0 -90 -37t-37 -90h-344q0 96 37 182t101.5 150.5t149.5 101.5t183 37q80 0 151.5 -24.5t131 -69 t102.5 -105.5t66 -133q20 -63 20 -139q0 -84 -27.5 -158t-76.5 -133q49 -59 76.5 -132t27.5 -157q0 -78 -20 -141q-23 -72 -66 -133.5t-102.5 -105.5t-131 -68.5t-151.5 -24.5q-98 0 -183 37t-149.5 101.5t-101.5 150.5t-37 184z" />
<glyph unicode="&#xb9;" horiz-adv-x="671" d="M-92 1210l299 314h344v-1524h-344v1040l-55 -73z" />
<glyph unicode="&#xba;" horiz-adv-x="1249" d="M4 606v357q0 98 39 199.5t111 178.5q86 88 192.5 135.5t226.5 47.5h2q121 0 228.5 -47t191.5 -136q74 -78 111 -176t39 -202v-357q0 -111 -34 -224.5t-116 -199.5q-84 -90 -191.5 -137t-228.5 -47h-2q-119 0 -226 47t-193 135q-80 86 -114 194.5t-36 231.5z" />
<glyph unicode="&#xbc;" horiz-adv-x="2263" d="M1141 385v344l501 791v4h344v-795h185v-344h-185v-385h-344v385h-501zM508 0l471 1524h344l-471 -1524h-344zM-92 1210l299 314h344v-1524h-344v1040l-55 -73z" />
<glyph unicode="&#xbd;" horiz-adv-x="2203" d="M1157 1053q0 96 35 182t96.5 150.5t145 101.5t180.5 37q80 0 151.5 -24.5t131 -69t102.5 -105.5t65 -133q20 -63 21 -139q0 -98 -36 -178t-101 -150l-340 -381h473v-344h-916v344l557 643q18 27 19 66q0 16 -4 37q-12 39 -43 70.5t-74 31.5q-39 0 -65.5 -13.5t-42 -35 t-22.5 -46t-7 -44.5h-326zM508 0l471 1524h344l-471 -1524h-344zM-92 1210l299 314h344v-1524h-344v1040l-55 -73z" />
<glyph unicode="&#xbe;" horiz-adv-x="2623" d="M1502 385v344l501 791v4h344v-795h185v-344h-185v-385h-344v385h-501zM868 0l471 1524h344l-471 -1524h-344zM0 473h113h231q0 -53 37 -91t90 -38q43 0 76 25.5t45 64.5q6 14 6 37q0 53 -37 98t-90 45h-98v295h98q53 0 90 45t37 99q0 20 -6 37q-12 39 -45 64.5t-76 25.5 q-53 0 -90 -37t-37 -90h-344q0 96 37 182t101.5 150.5t149.5 101.5t183 37q80 0 151.5 -24.5t131 -69t102.5 -105.5t66 -133q20 -63 20 -139q0 -84 -27.5 -158t-76.5 -133q49 -59 76.5 -132t27.5 -157q0 -78 -20 -141q-23 -72 -66 -133.5t-102.5 -105.5t-131 -68.5 t-151.5 -24.5q-98 0 -183 37t-149.5 101.5t-101.5 150.5t-37 184z" />
<glyph unicode="&#xc0;" horiz-adv-x="1378" d="M487 1837v344h342v-344l-109 -191h-208l108 191h-133zM-59 0l446 1524h459l446 -1524h-391l-137 401h-297l-135 -401h-391z" />
<glyph unicode="&#xc8;" horiz-adv-x="1069" d="M338 1837v344h342v-344l-109 -191h-208l108 191h-133zM0 0v1524h934v-344h-590v-246h434v-344h-434v-246h590v-344h-934z" />
<glyph unicode="&#xcc;" d="M43 1837v344h342v-344l-109 -191h-208l108 191h-133zM0 0v1524h344v-1524h-344z" />
<glyph unicode="&#xd2;" horiz-adv-x="1249" d="M444 1837v344h342v-344l-109 -191h-208l108 191h-133zM4 606v357q0 98 39 199.5t111 178.5q86 88 192.5 135.5t226.5 47.5h2q121 0 228.5 -47t191.5 -136q74 -78 111 -176t39 -202v-357q0 -111 -34 -224.5t-116 -199.5q-84 -90 -191.5 -137t-228.5 -47h-2q-119 0 -226 47 t-193 135q-80 86 -114 194.5t-36 231.5z" />
<glyph unicode="&#xd9;" horiz-adv-x="1236" d="M424 1839v344h342v-344l-109 -191h-208l108 191h-133zM2 608v918h354v-891q0 -55 11.5 -104.5t36 -86t61.5 -58t88 -21.5t88 21.5t60.5 58t35 86t11.5 104.5v891h354v-918q0 -135 -36 -247.5t-104.5 -193.5t-170.5 -125q-98 -42 -226 -42h-12h-2h-12q-142 0 -242 47 q-104 49 -170 134t-95.5 195.5t-29.5 231.5z" />
<glyph unicode="&#xe0;" horiz-adv-x="1368" d="M487 1837v344h342v-344l-109 -191h-208l108 191h-133zM-59 0l446 1524h459l446 -1524h-391l-137 401h-297l-135 -401h-391z" />
<glyph unicode="&#xe8;" horiz-adv-x="1069" d="M338 1837v344h342v-344l-109 -191h-208l108 191h-133zM0 0v1524h934v-344h-590v-246h434v-344h-434v-246h590v-344h-934z" />
<glyph unicode="&#xec;" d="M43 1837v344h342v-344l-109 -191h-208l108 191h-133zM0 0v1524h344v-1524h-344z" />
<glyph unicode="&#xf2;" horiz-adv-x="1249" d="M444 1837v344h342v-344l-109 -191h-208l108 191h-133zM4 606v357q0 98 39 199.5t111 178.5q86 88 192.5 135.5t226.5 47.5h2q121 0 228.5 -47t191.5 -136q74 -78 111 -176t39 -202v-357q0 -111 -34 -224.5t-116 -199.5q-84 -90 -191.5 -137t-228.5 -47h-2q-119 0 -226 47 t-193 135q-80 86 -114 194.5t-36 231.5z" />
<glyph unicode="&#xf9;" horiz-adv-x="1236" d="M424 1839v344h342v-344l-109 -191h-208l108 191h-133zM2 608v918h354v-891q0 -55 11.5 -104.5t36 -86t61.5 -58t88 -21.5t88 21.5t60.5 58t35 86t11.5 104.5v891h354v-918q0 -135 -36 -247.5t-104.5 -193.5t-170.5 -125q-98 -42 -226 -42h-12h-2h-12q-142 0 -242 47 q-104 49 -170 134t-95.5 195.5t-29.5 231.5z" />
<glyph unicode="&#x152;" horiz-adv-x="2318" d="M1249 0v1524h934v-344h-590v-246h434v-344h-434v-246h590v-344h-934zM4 606v357q0 98 39 199.5t111 178.5q86 88 192.5 135.5t226.5 47.5h2q121 0 228.5 -47t191.5 -136q74 -78 111 -176t39 -202v-357q0 -111 -34 -224.5t-116 -199.5q-84 -90 -191.5 -137t-228.5 -47h-2 q-119 0 -226 47t-193 135q-80 86 -114 194.5t-36 231.5z" />
<glyph unicode="&#x153;" horiz-adv-x="2318" d="M1249 0v1524h934v-344h-590v-246h434v-344h-434v-246h590v-344h-934zM4 606v357q0 98 39 199.5t111 178.5q86 88 192.5 135.5t226.5 47.5h2q121 0 228.5 -47t191.5 -136q74 -78 111 -176t39 -202v-357q0 -111 -34 -224.5t-116 -199.5q-84 -90 -191.5 -137t-228.5 -47h-2 q-119 0 -226 47t-193 135q-80 86 -114 194.5t-36 231.5z" />
<glyph unicode="&#x2000;" horiz-adv-x="1091" />
<glyph unicode="&#x2001;" horiz-adv-x="2183" />
<glyph unicode="&#x2002;" horiz-adv-x="1091" />
<glyph unicode="&#x2003;" horiz-adv-x="2183" />
<glyph unicode="&#x2004;" horiz-adv-x="727" />
<glyph unicode="&#x2005;" horiz-adv-x="544" />
<glyph unicode="&#x2006;" horiz-adv-x="362" />
<glyph unicode="&#x2007;" horiz-adv-x="362" />
<glyph unicode="&#x2008;" horiz-adv-x="272" />
<glyph unicode="&#x2009;" horiz-adv-x="436" />
<glyph unicode="&#x200a;" horiz-adv-x="120" />
<glyph unicode="&#x2010;" horiz-adv-x="1200" d="M0 616v345h1059v-345h-1059z" />
<glyph unicode="&#x2011;" horiz-adv-x="1200" d="M0 616v345h1059v-345h-1059z" />
<glyph unicode="&#x2012;" horiz-adv-x="1200" d="M0 616v345h1059v-345h-1059z" />
<glyph unicode="&#x2013;" horiz-adv-x="1200" d="M0 616v345h1059v-345h-1059z" />
<glyph unicode="&#x2014;" horiz-adv-x="1517" d="M0 616v345h1366v-345h-1366z" />
<glyph unicode="&#x2018;" horiz-adv-x="299" d="M0 1524h207l-21 -281h-166z" />
<glyph unicode="&#x2019;" horiz-adv-x="299" d="M0 1524h207l-21 -281h-166z" />
<glyph unicode="&#x201c;" horiz-adv-x="481" d="M0 1524h207l-21 -281h-166zM246 1524h207l-21 -281h-166z" />
<glyph unicode="&#x201d;" horiz-adv-x="481" d="M0 1524h207l-21 -281h-166zM246 1524h207l-21 -281h-166z" />
<glyph unicode="&#x2022;" horiz-adv-x="468" d="M0 645v283h281v-283h-281z" />
<glyph unicode="&#x2026;" horiz-adv-x="1406" d="M938 0v283h281v-283h-281zM469 0v283h281v-283h-281zM0 0v283h281v-283h-281z" />
<glyph unicode="&#x202f;" horiz-adv-x="436" />
<glyph unicode="&#x2039;" horiz-adv-x="1044" d="M0 778l614 746h406l-614 -742l614 -782h-406z" />
<glyph unicode="&#x203a;" horiz-adv-x="1044" d="M-8 0l614 741l-614 783h405l615 -779l-615 -745h-405z" />
<glyph unicode="&#x2044;" d="M-164 0l471 1524h344l-471 -1524h-344z" />
<glyph unicode="&#x205f;" horiz-adv-x="544" />
<glyph unicode="&#x2122;" horiz-adv-x="2603" d="M1128 0v1524h350l316 -885l317 885h344v-1524h-364v532l-187 -532h-221l-190 549v-549h-365zM-18 1180v344h1036v-344h-346v-1180h-344v1180h-346z" />
<glyph unicode="&#xe000;" horiz-adv-x="1525" d="M0 1525h1525v-1525h-1525v1525z" />
<glyph unicode="&#xfb01;" horiz-adv-x="1511" d="M1026 0v1524h344v-1524h-344zM2 0v1524h934v-344h-590v-246h434v-344h-434v-590h-344z" />
<glyph unicode="&#xfb02;" horiz-adv-x="1908" d="M1026 0v1524h344v-1180h408v-344h-752zM2 0v1524h934v-344h-590v-246h434v-344h-434v-590h-344z" />
<glyph unicode="&#xfb03;" horiz-adv-x="2537" d="M2052 0v1524h344v-1524h-344zM1028 0v1524h934v-344h-590v-246h434v-344h-434v-590h-344zM2 0v1524h934v-344h-590v-246h434v-344h-434v-590h-344z" />
<glyph unicode="&#xfb04;" horiz-adv-x="2934" d="M2052 0v1524h344v-1180h408v-344h-752zM1028 0v1524h934v-344h-590v-246h434v-344h-434v-590h-344zM2 0v1524h934v-344h-590v-246h434v-344h-434v-590h-344z" />
</font>
</defs>
</svg>
