<svg width="2em" height="1em" viewBox="0 0 52 24">
    <defs>
      <linearGradient id="gradient_0" gradientUnits="userSpaceOnUse" x1="27.12" y1="20.06" x2="26.83" y2="0.10">
        <stop offset="0%" stopColor="#62789b"/>
        <stop offset="100%" stopColor="#8c9bdd"/>
      </linearGradient>
    </defs>
    <path d="M 10.83 0.00 C 10.18 0.00 9.61 0.22 9.14 0.69 L 9.14 0.69 L 1.40 8.29 C 0.91 8.81 0.64 9.38 0.62 10.07 L 0.62 10.07 C 0.62 10.69 0.85 11.24 1.34 11.71 L 1.34 11.71 C 1.85 12.18 2.43 12.38 3.07 12.33 L 3.07 12.33 C 3.74 12.38 4.30 12.15 4.77 11.64 L 4.77 11.64 L 10.83 5.88 L 16.16 11.13 C 16.94 11.84 17.34 12.24 17.41 12.29 L 17.41 12.29 C 17.87 12.75 18.43 12.97 19.08 12.97 L 19.08 12.97 C 19.72 13.02 20.33 12.80 20.84 12.33 L 20.84 12.33 C 20.88 12.31 21.28 11.91 22.02 11.13 L 22.02 11.13 C 22.80 10.38 23.71 9.51 24.74 8.54 L 24.74 8.54 C 25.79 7.47 26.68 6.61 27.41 5.88 L 27.41 5.88 L 37.04 15.44 C 37.51 15.90 38.07 16.17 38.67 16.21 L 38.67 16.21 L 45.25 16.21 L 45.18 20.52 L 52.00 13.86 L 45.25 7.08 L 45.25 11.44 L 39.76 11.38 L 29.11 0.75 C 28.62 0.33 28.06 0.11 27.41 0.11 L 27.41 0.11 C 26.77 0.09 26.19 0.29 25.65 0.75 L 25.65 0.75 L 19.15 7.21 L 13.75 1.95 C 12.97 1.15 12.57 0.73 12.52 0.69 L 12.52 0.69 C 12.03 0.22 11.52 0.00 10.96 0.00 L 10.96 0.00 C 10.92 0.00 10.88 0.00 10.83 0.00" stroke="none" fill="url(#gradient_0)"  />
    <defs>
      <linearGradient id="gradient_1" gradientUnits="userSpaceOnUse" x1="22.21" y1="23.71" x2="21.97" y2="10.91">
        <stop offset="0%" stopColor="#62789b"/>
        <stop offset="100%" stopColor="#8c9bdd"/>
      </linearGradient>
    </defs>
    <path d="M 9.09 11.54 L 3.05 17.44 L -0.00 14.46 L -0.00 23.89 L 9.63 23.89 L 6.49 20.85 C 6.53 20.85 6.58 20.83 6.62 20.78 L 6.62 20.78 L 10.86 16.66 L 17.43 23.14 C 17.90 23.60 18.46 23.82 19.10 23.82 L 19.10 23.82 C 19.77 23.87 20.35 23.67 20.86 23.20 L 20.86 23.20 L 27.37 16.66 L 34.01 23.31 C 34.48 23.73 35.06 23.96 35.71 23.96 L 35.71 23.96 L 40.59 24.00 C 41.28 23.98 41.86 23.73 42.35 23.31 L 42.35 23.31 C 42.82 22.85 43.06 22.27 43.06 21.54 L 43.06 21.54 C 43.06 20.87 42.82 20.30 42.35 19.83 L 42.35 19.83 C 41.90 19.41 41.35 19.21 40.66 19.21 L 40.66 19.21 L 36.76 19.14 L 29.13 11.60 C 28.66 11.18 28.08 10.96 27.44 10.96 L 27.44 10.96 C 26.79 10.94 26.21 11.14 25.70 11.60 L 25.70 11.60 L 19.10 17.99 L 12.48 11.54 C 11.99 11.07 11.46 10.85 10.86 10.85 L 10.86 10.85 C 10.21 10.85 9.63 11.07 9.09 11.54" stroke="none" fill="url(#gradient_1)"  />
  </svg>